<?xml version="1.0" standalone="no"?>
<!DOCTYPE svg PUBLIC "-//W3C//DTD SVG 20010904//EN"
 "http://www.w3.org/TR/2001/REC-SVG-20010904/DTD/svg10.dtd">
<svg version="1.0" xmlns="http://www.w3.org/2000/svg"
 width="1312.000000pt" height="1312.000000pt" viewBox="0 0 1312.000000 1312.000000"
 preserveAspectRatio="xMidYMid meet">
<metadata>
Created by potrace 1.14, written by Peter Selinger 2001-2017
</metadata>
<g transform="translate(0.000000,1312.000000) scale(0.100000,-0.100000)"
fill="#000000" stroke="none">
<path d="M5216 10731 c5 -11 2 -13 -14 -9 -12 4 -22 2 -22 -3 0 -6 -6 -7 -17
0 -10 5 -26 5 -40 0 -13 -5 -25 -4 -28 2 -4 6 -13 6 -23 0 -9 -5 -26 -5 -39 0
-13 5 -25 4 -28 -1 -3 -5 -18 -5 -35 0 -17 5 -30 6 -30 2 0 -9 -75 -6 -89 3
-6 3 -11 1 -11 -5 0 -7 -6 -8 -17 -2 -21 10 -33 10 -50 -1 -6 -4 -15 -3 -18 3
-5 8 -11 8 -20 0 -10 -8 -15 -8 -20 0 -5 8 -10 8 -20 0 -9 -8 -15 -8 -20 0 -3
6 -12 7 -18 3 -18 -11 -37 -12 -37 -3 0 10 -20 8 -37 -3 -7 -5 -13 -4 -13 1 0
10 -30 9 -48 -2 -6 -4 -12 -3 -12 2 0 10 -30 9 -48 -2 -7 -4 -12 -2 -12 4 0 8
-6 8 -20 0 -11 -6 -20 -7 -20 -2 0 4 -9 8 -20 8 -11 0 -20 -4 -20 -8 0 -4 -12
-3 -26 2 -17 7 -32 6 -46 -1 -15 -8 -19 -8 -14 0 4 6 4 11 1 11 -4 0 -16 -5
-27 -11 -15 -8 -19 -8 -14 0 9 13 -4 14 -23 2 -8 -5 -24 -6 -37 -1 -15 6 -26
5 -30 -1 -4 -7 -10 -7 -18 0 -7 6 -18 6 -26 1 -7 -4 -24 -4 -36 0 -14 6 -26 5
-29 0 -3 -5 -18 -5 -35 0 -17 5 -30 6 -30 2 0 -9 -75 -6 -89 3 -6 3 -11 1 -11
-5 0 -7 -6 -8 -17 -2 -21 10 -33 10 -50 -1 -6 -4 -15 -3 -18 3 -5 8 -11 8 -20
0 -10 -8 -15 -8 -20 0 -5 8 -10 8 -20 0 -9 -8 -15 -8 -20 0 -3 6 -12 7 -18 3
-18 -11 -37 -12 -37 -3 0 10 -20 8 -37 -3 -7 -5 -13 -4 -13 1 0 10 -30 9 -48
-2 -6 -4 -12 -3 -12 2 0 10 -30 9 -48 -2 -7 -4 -12 -2 -12 4 0 8 -6 8 -20 0
-11 -6 -20 -7 -20 -2 0 4 -9 8 -20 8 -11 0 -20 -4 -20 -8 0 -4 -12 -3 -26 2
-17 7 -32 6 -46 -1 -15 -8 -19 -8 -14 0 9 14 0 14 -26 0 -15 -8 -19 -8 -14 0
9 13 -4 14 -23 2 -8 -5 -24 -6 -37 -1 -15 6 -26 5 -30 -1 -4 -7 -10 -7 -18 0
-7 6 -18 6 -26 1 -7 -4 -24 -4 -36 0 -14 6 -26 5 -29 0 -3 -5 -18 -5 -35 0
-17 5 -30 6 -30 2 0 -9 -75 -6 -89 3 -6 3 -11 1 -11 -5 0 -8 -30 1 -46 14 0 1
-8 -5 -17 -12 -11 -9 -17 -10 -22 -2 -5 8 -10 8 -20 0 -10 -8 -15 -8 -20 0 -5
8 -10 8 -20 0 -9 -8 -15 -8 -20 0 -3 6 -12 7 -18 3 -18 -11 -37 -12 -37 -3 0
10 -20 8 -37 -3 -7 -5 -13 -4 -13 1 0 10 -30 9 -48 -2 -6 -4 -12 -4 -12 1 0 4
-11 8 -25 8 -14 0 -25 -4 -25 -10 0 -5 -5 -4 -11 2 -7 7 -20 8 -34 3 -12 -5
-28 -4 -36 1 -19 12 -32 11 -23 -2 4 -8 0 -8 -15 0 -13 8 -27 8 -38 3 -10 -5
-27 -6 -38 -2 -11 4 -29 4 -41 0 -11 -5 -28 -4 -37 1 -9 6 -17 6 -17 2 0 -4
-27 -9 -60 -9 -124 -3 -297 -108 -352 -213 -7 -14 -19 -32 -25 -39 -12 -12
-14 -18 -13 -37 0 -3 -7 -19 -15 -35 -8 -16 -16 -33 -16 -37 -1 -5 -6 -7 -12
-5 -7 2 -7 -1 0 -10 11 -14 9 -100 -2 -118 -3 -5 -1 -10 6 -10 8 0 9 -4 0 -13
-8 -10 -7 -17 1 -25 7 -7 8 -12 3 -12 -6 0 -11 -11 -11 -25 -1 -14 1 -23 5
-21 9 6 5 -43 -5 -68 -6 -15 -4 -17 7 -11 12 7 12 6 1 -7 -9 -12 -10 -18 -2
-23 8 -5 8 -10 0 -20 -8 -10 -8 -15 0 -20 8 -5 8 -10 0 -20 -8 -9 -8 -15 0
-20 7 -4 7 -12 0 -25 -13 -25 -13 -33 3 -24 9 6 9 5 0 -7 -9 -11 -9 -19 -2
-26 8 -8 8 -13 0 -17 -8 -5 -8 -13 -1 -27 6 -10 7 -19 3 -19 -10 0 -10 -41 0
-57 4 -7 3 -14 -3 -18 -6 -4 -7 -13 -1 -23 6 -11 6 -24 0 -35 -7 -12 -6 -17 1
-17 6 0 8 -5 4 -12 -12 -19 -12 -48 -1 -48 5 0 5 -6 -2 -13 -8 -10 -7 -17 1
-25 7 -7 8 -12 3 -12 -6 0 -11 -11 -11 -25 -1 -14 1 -23 5 -21 9 6 5 -43 -5
-68 -6 -15 -4 -17 7 -11 12 7 12 6 1 -7 -9 -12 -10 -18 -2 -23 8 -5 8 -11 1
-19 -7 -9 -7 -16 1 -24 7 -7 8 -12 2 -12 -12 0 -12 -29 -1 -47 4 -6 1 -13 -5
-16 -10 -3 -10 -7 1 -20 8 -11 9 -17 3 -17 -7 0 -9 -7 -5 -17 5 -12 3 -14 -8
-9 -8 4 -6 1 4 -7 12 -10 15 -17 7 -22 -7 -5 -8 -11 -1 -19 6 -7 6 -17 1 -26
-5 -9 -5 -19 2 -27 6 -7 6 -13 1 -13 -5 0 -9 -9 -9 -20 0 -11 4 -20 9 -20 5 0
4 -7 -4 -16 -9 -11 -10 -17 -1 -23 7 -4 8 -12 2 -21 -5 -8 -4 -22 2 -33 8 -15
7 -18 -3 -12 -9 6 -10 3 -5 -11 12 -28 13 -74 4 -80 -5 -3 -5 -11 1 -18 6 -7
6 -17 1 -26 -5 -9 -5 -19 2 -27 6 -7 6 -13 1 -13 -5 0 -9 -9 -9 -20 0 -11 4
-20 9 -20 5 0 3 -7 -4 -17 -11 -12 -11 -17 -2 -20 8 -3 9 -12 3 -27 -5 -15 -5
-27 3 -35 8 -8 8 -11 -1 -11 -10 0 -10 -5 -1 -21 8 -15 8 -19 0 -15 -13 9 -14
-4 -1 -24 5 -8 5 -19 1 -25 -10 -12 -8 -45 3 -63 4 -7 2 -12 -4 -12 -8 0 -7
-6 1 -21 6 -12 7 -19 1 -15 -6 3 -9 -5 -8 -19 0 -14 4 -25 7 -25 7 0 3 -50 -7
-74 -6 -15 -4 -17 7 -11 11 7 12 6 2 -6 -9 -11 -9 -19 -2 -26 8 -8 8 -13 0
-17 -8 -5 -8 -13 -1 -27 6 -10 7 -19 3 -19 -10 0 -10 -41 0 -57 4 -7 3 -14 -3
-18 -6 -4 -7 -13 -1 -23 6 -11 6 -24 0 -35 -7 -12 -6 -17 2 -17 8 0 8 -4 -1
-15 -10 -12 -10 -18 0 -30 9 -11 9 -15 1 -15 -9 0 -9 -5 -1 -20 6 -11 7 -20 2
-20 -5 0 -9 -7 -9 -15 0 -8 4 -15 8 -15 5 0 4 -11 -1 -25 -7 -17 -6 -25 1 -25
8 0 7 -5 -1 -15 -10 -12 -10 -15 0 -15 10 0 10 -3 1 -14 -9 -11 -9 -16 0 -21
8 -6 8 -10 -2 -15 -10 -7 -10 -12 0 -23 9 -12 9 -16 -1 -19 -10 -4 -10 -8 -1
-19 7 -9 9 -20 3 -29 -5 -9 -5 -19 2 -27 7 -9 7 -13 -1 -13 -9 0 -9 -5 0 -21
8 -15 8 -19 0 -15 -13 9 -14 -4 -1 -24 5 -8 5 -19 1 -25 -10 -12 -8 -45 3 -63
4 -7 2 -12 -4 -12 -8 0 -7 -6 1 -21 6 -12 7 -19 1 -15 -6 3 -9 -5 -8 -19 0
-14 4 -25 8 -25 4 0 3 -11 -2 -25 -6 -16 -6 -26 1 -31 8 -4 7 -9 -2 -14 -10
-7 -10 -11 0 -24 9 -10 10 -16 3 -16 -7 0 -9 -7 -5 -17 5 -12 3 -14 -8 -9 -8
4 -6 1 4 -7 12 -10 15 -17 7 -22 -7 -5 -8 -11 -1 -19 6 -7 6 -17 1 -26 -5 -9
-5 -19 2 -27 6 -7 6 -13 1 -13 -5 0 -9 -9 -9 -20 0 -11 4 -20 9 -20 5 0 4 -7
-4 -16 -9 -11 -10 -17 -1 -23 7 -4 8 -12 2 -21 -5 -8 -4 -22 2 -33 8 -15 7
-18 -3 -12 -9 6 -10 3 -5 -11 12 -28 13 -74 4 -80 -5 -3 -5 -11 1 -18 6 -7 6
-17 1 -26 -5 -9 -5 -19 2 -27 6 -7 6 -13 1 -13 -5 0 -9 -9 -9 -20 0 -11 4 -20
9 -20 5 0 3 -7 -4 -17 -11 -13 -11 -17 -2 -20 10 -4 10 -10 2 -25 -8 -16 -8
-19 1 -13 9 6 9 3 1 -13 -14 -27 -14 -35 2 -26 9 6 9 5 0 -7 -9 -11 -9 -19 -2
-26 8 -8 8 -13 0 -17 -8 -5 -8 -13 -1 -27 6 -10 7 -19 3 -19 -10 0 -10 -41 0
-57 4 -7 3 -14 -3 -18 -6 -4 -7 -13 -1 -23 6 -11 6 -24 0 -35 -7 -12 -6 -17 1
-17 6 0 8 -5 4 -12 -12 -19 -12 -48 -1 -48 5 0 5 -6 -2 -13 -8 -10 -7 -17 1
-25 7 -7 8 -12 2 -12 -5 0 -10 -11 -10 -25 -1 -14 1 -23 5 -21 9 6 5 -43 -5
-68 -6 -15 -4 -17 7 -11 12 7 12 6 1 -7 -9 -12 -10 -18 -2 -23 8 -5 8 -11 1
-19 -7 -9 -7 -16 1 -24 9 -9 9 -12 0 -12 -9 0 -10 -5 -3 -18 6 -11 6 -24 0
-33 -13 -20 -11 -31 4 -23 9 6 9 5 0 -7 -9 -11 -9 -19 -2 -26 8 -8 8 -13 0
-17 -8 -5 -8 -13 -1 -27 6 -10 7 -19 3 -19 -10 0 -10 -41 0 -57 4 -7 3 -14 -3
-18 -6 -4 -7 -13 -1 -23 6 -11 6 -24 0 -35 -7 -12 -6 -17 1 -17 6 0 8 -5 4
-12 -12 -19 -12 -48 -1 -48 5 0 5 -6 -2 -13 -8 -10 -7 -17 1 -25 7 -7 8 -12 2
-12 -5 0 -10 -11 -10 -25 -1 -14 1 -23 5 -21 9 6 5 -43 -5 -68 -6 -15 -4 -17
7 -11 12 7 12 6 1 -7 -9 -12 -10 -18 -2 -23 8 -5 8 -11 1 -19 -7 -9 -7 -16 1
-24 7 -7 8 -12 2 -12 -11 0 -11 -40 0 -58 4 -7 2 -12 -4 -12 -8 0 -7 -6 1 -21
8 -15 8 -19 0 -15 -13 9 -14 -4 -1 -24 5 -8 5 -19 1 -25 -10 -12 -8 -45 3 -63
4 -7 2 -12 -4 -12 -8 0 -7 -6 1 -21 6 -12 7 -19 1 -15 -6 3 -9 -5 -8 -19 0
-14 4 -25 7 -25 7 0 3 -50 -7 -74 -6 -15 -4 -17 7 -11 11 7 12 6 2 -6 -9 -11
-9 -19 -2 -26 8 -8 8 -13 0 -17 -8 -5 -8 -13 -1 -27 6 -10 7 -19 3 -19 -10 0
-10 -41 0 -57 4 -7 3 -14 -3 -18 -6 -4 -7 -13 -1 -23 6 -11 6 -24 0 -35 -7
-12 -6 -17 2 -17 8 0 8 -4 -1 -15 -10 -12 -10 -18 0 -30 9 -11 9 -15 1 -15 -9
0 -9 -5 -1 -20 6 -11 7 -20 2 -20 -5 0 -9 -7 -9 -15 0 -8 4 -15 8 -15 5 0 4
-11 -1 -25 -7 -17 -6 -25 1 -25 8 0 7 -5 -1 -15 -10 -12 -10 -15 0 -15 10 0
10 -3 1 -14 -9 -11 -9 -16 0 -21 8 -6 8 -10 -2 -15 -10 -7 -10 -12 0 -23 9
-12 9 -16 -1 -19 -10 -4 -10 -8 -1 -19 7 -9 9 -20 3 -29 -5 -9 -5 -19 2 -27 7
-9 7 -13 -1 -13 -9 0 -9 -5 0 -21 8 -15 8 -19 0 -15 -13 9 -14 -4 -1 -24 5 -8
5 -19 1 -25 -10 -12 -8 -45 3 -63 4 -7 2 -12 -4 -12 -8 0 -7 -6 1 -21 6 -12 7
-19 1 -15 -6 3 -9 -5 -8 -19 0 -14 4 -25 8 -25 4 0 3 -13 -2 -29 -5 -19 -4
-33 3 -40 8 -8 8 -11 -1 -11 -10 0 -10 -5 -1 -21 8 -15 8 -19 0 -15 -13 9 -14
-4 -1 -24 5 -8 5 -19 1 -25 -10 -12 -8 -45 3 -63 4 -7 2 -12 -4 -12 -8 0 -7
-6 1 -21 6 -12 7 -19 1 -15 -6 3 -9 -5 -8 -19 0 -14 4 -25 7 -25 7 0 3 -50 -7
-74 -6 -15 -4 -17 7 -11 11 7 12 6 2 -6 -9 -11 -9 -19 -2 -26 8 -8 8 -13 0
-17 -8 -5 -8 -13 -1 -27 6 -10 7 -19 3 -19 -10 0 -10 -41 0 -57 4 -7 3 -14 -3
-18 -6 -4 -7 -13 -1 -23 6 -11 6 -24 0 -35 -7 -12 -6 -17 2 -17 8 0 8 -4 -1
-15 -10 -12 -10 -18 0 -30 9 -11 9 -15 1 -15 -9 0 -9 -5 -1 -20 6 -11 7 -20 2
-20 -5 0 -9 -7 -9 -15 0 -8 4 -15 8 -15 5 0 4 -11 -1 -25 -7 -17 -6 -25 1 -25
8 0 7 -5 -1 -15 -10 -12 -10 -15 0 -15 10 0 10 -3 1 -14 -9 -11 -9 -16 0 -21
8 -6 8 -10 -2 -15 -10 -7 -10 -12 0 -23 9 -12 9 -16 -1 -19 -10 -4 -10 -8 -1
-19 7 -9 9 -20 3 -29 -5 -9 -5 -19 2 -27 7 -9 7 -13 -1 -13 -9 0 -9 -5 0 -21
8 -15 8 -19 0 -15 -13 9 -14 -4 -1 -24 5 -8 5 -19 1 -25 -10 -12 -8 -45 3 -63
4 -7 2 -12 -4 -12 -8 0 -7 -6 1 -21 6 -12 7 -19 1 -15 -6 3 -9 -5 -8 -19 0
-14 4 -25 7 -25 7 0 3 -50 -7 -74 -6 -15 -4 -17 7 -11 11 7 12 6 2 -6 -9 -11
-9 -19 -2 -26 8 -8 8 -13 0 -17 -8 -5 -8 -13 -1 -27 6 -10 7 -19 3 -19 -10 0
-10 -41 0 -57 4 -7 3 -14 -3 -18 -6 -4 -7 -13 -1 -23 6 -11 6 -24 0 -35 -7
-12 -6 -17 1 -17 6 0 8 -5 4 -12 -12 -19 -12 -48 -1 -48 5 0 5 -6 -2 -13 -8
-10 -7 -17 1 -25 7 -7 8 -12 3 -12 -6 0 -11 -11 -11 -25 -1 -14 1 -23 5 -21 9
6 5 -43 -5 -68 -6 -15 -4 -17 7 -11 12 7 12 6 1 -7 -9 -12 -10 -18 -2 -23 8
-5 8 -11 1 -19 -7 -9 -7 -16 1 -24 9 -9 9 -12 0 -12 -9 0 -10 -5 -3 -18 6 -11
6 -24 0 -33 -13 -20 -11 -31 3 -23 10 6 10 5 1 -7 -9 -11 -9 -19 -2 -26 8 -8
8 -13 0 -17 -8 -5 -8 -13 -1 -27 6 -10 7 -19 3 -19 -10 0 -10 -41 0 -57 4 -7
3 -14 -3 -18 -6 -4 -7 -13 -1 -23 6 -11 6 -24 0 -35 -7 -12 -6 -17 1 -17 6 0
8 -5 4 -12 -12 -19 -12 -48 -1 -48 5 0 5 -6 -2 -13 -8 -10 -7 -17 1 -25 7 -7
8 -12 3 -12 -6 0 -11 -11 -11 -25 -1 -14 1 -23 5 -21 9 6 5 -43 -5 -68 -6 -15
-4 -17 7 -11 12 7 12 6 1 -7 -9 -12 -10 -18 -2 -23 8 -5 8 -11 1 -19 -7 -9 -7
-16 1 -24 7 -7 8 -12 2 -12 -5 0 -9 -12 -8 -27 1 -16 3 -28 4 -28 1 0 4 -20 6
-45 3 -25 7 -52 11 -60 3 -8 5 -21 4 -27 -1 -7 3 -13 9 -13 6 0 9 -3 7 -7 -7
-11 39 -94 47 -86 3 3 6 0 6 -8 0 -8 11 -26 24 -41 14 -14 22 -29 18 -34 -4
-4 -2 -4 4 -1 6 3 21 -5 32 -18 12 -14 27 -25 33 -25 5 0 7 -6 3 -12 -4 -7 -4
-10 1 -6 4 4 29 -3 54 -16 72 -37 103 -47 159 -49 29 -1 52 -6 52 -12 0 -5 5
-3 10 5 7 11 10 11 10 2 0 -9 5 -10 18 -3 13 7 22 7 29 0 8 -8 13 -7 18 1 5 8
11 6 22 -7 8 -10 12 -12 8 -5 -3 6 0 12 7 13 7 0 25 2 41 3 19 1 26 -2 22 -12
-4 -10 0 -10 16 2 15 10 28 12 45 6 16 -6 24 -6 24 1 0 6 7 6 17 2 22 -10 54
-10 70 0 6 4 15 3 18 -3 5 -8 12 -7 23 2 12 10 14 10 8 0 -9 -15 -1 -15 26 -1
16 9 19 8 13 -2 -6 -9 -3 -10 11 -5 27 11 74 14 68 4 -6 -10 4 -9 31 1 11 5
28 4 38 -1 12 -6 17 -5 17 4 0 9 3 9 12 0 7 -7 17 -8 30 -1 12 7 18 6 18 -1 0
-7 6 -8 18 -2 21 11 44 4 36 -11 -3 -7 1 -4 9 5 11 14 16 15 27 5 10 -9 13 -9
17 1 3 6 10 9 16 5 17 -10 47 -11 47 -1 0 5 9 4 20 -2 14 -8 20 -8 20 0 0 8 6
8 20 0 15 -8 20 -8 20 1 0 9 3 9 14 0 10 -9 16 -9 21 -1 5 8 10 8 20 0 10 -8
15 -8 20 0 5 8 11 8 19 1 9 -7 17 -7 26 2 10 9 11 9 6 0 -9 -16 -1 -16 26 -2
16 9 19 8 13 -2 -6 -9 -3 -10 11 -5 27 11 74 14 68 4 -6 -10 4 -9 31 1 11 5
28 4 38 -1 11 -6 17 -5 17 2 0 6 5 8 13 3 16 -10 67 -11 67 -1 0 5 9 4 20 -2
15 -8 20 -8 20 1 0 9 3 9 14 0 10 -8 16 -9 21 -1 4 7 12 7 25 0 13 -7 21 -7
25 0 5 8 12 7 23 -2 12 -11 16 -11 20 0 3 10 7 10 19 1 11 -10 16 -10 23 0 5
10 9 10 15 2 5 -9 10 -9 20 -1 9 7 15 8 19 1 5 -7 15 -7 31 -1 14 5 25 6 25 2
0 -4 11 -8 25 -8 14 -1 22 2 19 8 -4 6 3 5 15 -1 16 -9 21 -9 21 0 0 8 4 8 13
1 6 -5 21 -6 32 -2 11 4 28 3 38 -2 11 -5 17 -5 17 1 0 7 9 7 25 1 18 -7 25
-6 25 2 0 9 3 9 12 0 7 -7 17 -8 29 -2 12 7 20 6 24 0 5 -8 11 -7 21 1 11 9
14 9 14 0 0 -9 5 -9 20 -1 14 8 20 8 20 0 0 -7 6 -8 19 -1 10 6 20 8 23 6 10
-10 68 -12 68 -2 0 5 6 4 14 -2 10 -8 16 -9 21 -1 4 7 12 7 26 0 14 -8 19 -7
19 2 0 9 3 9 12 0 7 -7 17 -8 30 -1 10 5 18 6 18 1 0 -5 7 -9 15 -9 8 0 15 5
15 10 0 5 5 5 13 -1 8 -7 18 -7 27 -2 8 5 21 5 32 -1 13 -7 18 -6 18 2 0 8 4
9 13 0 10 -8 17 -7 25 1 9 9 12 9 12 0 0 -9 5 -10 17 -3 10 5 26 5 40 0 13 -5
23 -5 23 0 0 5 16 5 35 1 21 -5 38 -4 41 2 4 5 11 5 18 -1 9 -7 17 -7 26 2 10
9 11 9 6 0 -9 -16 -1 -16 26 -2 16 9 19 8 13 -2 -6 -9 -3 -10 11 -5 27 11 74
14 68 4 -6 -10 4 -9 31 1 11 5 28 4 38 -1 11 -6 17 -5 17 3 0 7 4 8 13 2 6 -5
23 -8 37 -6 46 6 85 5 103 -2 11 -4 17 -3 17 5 0 10 4 9 16 -1 13 -10 17 -10
24 0 5 10 9 10 15 2 5 -9 10 -9 21 0 11 9 14 9 14 0 0 -9 5 -9 20 -1 14 8 20
8 20 0 0 -8 6 -8 20 0 15 8 20 8 20 -1 0 -8 4 -8 15 1 11 9 15 9 15 1 0 -8 5
-9 19 -1 14 7 22 7 26 0 5 -8 11 -7 21 1 10 8 14 8 14 1 0 -7 7 -9 17 -5 12 5
14 3 9 -8 -4 -8 -1 -6 7 4 10 12 17 15 22 7 5 -8 11 -7 23 2 13 11 15 10 9 -5
-6 -16 -5 -17 14 -3 15 10 28 12 45 6 16 -6 24 -6 24 1 0 6 6 7 16 1 9 -5 32
-6 50 -2 19 4 34 5 34 1 0 -3 11 -7 25 -7 14 -1 22 2 19 8 -4 6 3 5 15 -1 16
-9 21 -9 21 0 0 8 4 8 13 1 6 -5 21 -6 32 -2 11 4 28 3 38 -2 11 -5 17 -5 17
1 0 7 9 7 25 1 18 -7 25 -6 25 2 0 9 3 9 12 0 7 -7 17 -8 29 -2 12 7 20 6 24
0 5 -8 11 -7 21 1 11 9 14 9 14 0 0 -9 5 -9 20 -1 14 8 20 8 20 0 0 -7 6 -8
19 -1 10 6 20 8 23 6 10 -10 68 -12 68 -2 0 5 6 4 14 -2 10 -8 16 -9 21 -1 4
7 12 7 26 0 14 -8 19 -7 19 1 0 7 5 8 13 3 14 -11 37 -11 54 -1 6 4 15 3 18
-3 5 -8 12 -7 23 2 12 10 14 10 8 1 -9 -16 -1 -16 26 -2 16 9 19 8 13 -2 -6
-9 -3 -10 11 -5 27 11 74 14 68 4 -6 -10 4 -9 31 1 11 5 28 4 38 -1 12 -6 17
-5 17 4 0 9 3 9 12 0 7 -7 17 -8 30 -1 12 7 18 6 18 -1 0 -7 6 -8 18 -2 21 11
44 4 36 -11 -3 -7 1 -4 9 5 11 14 16 15 27 5 10 -9 13 -9 17 1 3 6 10 9 16 5
17 -10 47 -11 47 -1 0 5 9 4 20 -2 14 -8 20 -8 20 0 0 8 6 8 20 0 15 -8 20 -8
20 2 0 9 3 9 12 0 8 -8 15 -8 24 -1 8 7 14 7 19 -1 5 -8 10 -8 20 0 10 8 15 8
20 0 5 -8 11 -7 23 2 12 10 14 10 8 0 -9 -15 -1 -15 26 -1 16 9 19 8 13 -2 -6
-9 -3 -10 11 -5 27 11 74 14 68 4 -6 -10 4 -9 31 1 11 5 28 4 38 -1 11 -6 17
-5 17 2 0 6 5 8 13 3 16 -10 67 -11 67 -1 0 5 9 4 20 -2 15 -8 20 -8 20 1 0 9
3 9 14 0 10 -8 16 -9 21 -1 4 7 12 7 25 0 13 -7 21 -7 25 0 5 8 12 7 23 -2 12
-11 16 -11 20 0 3 10 7 10 19 1 11 -10 16 -10 23 0 5 10 9 10 15 2 5 -9 10 -9
20 -1 10 8 15 8 20 0 5 -8 11 -8 21 1 8 6 14 7 14 2 0 -5 7 -10 15 -10 8 0 15
5 15 10 0 5 5 5 13 -1 8 -7 18 -7 27 -2 8 5 21 5 32 -1 13 -7 18 -6 18 2 0 8
4 9 13 0 10 -8 17 -7 25 1 9 9 12 9 12 0 0 -9 5 -10 17 -3 10 5 26 5 40 0 13
-5 23 -5 23 0 0 5 16 5 35 1 21 -5 38 -4 41 2 4 5 11 5 18 -1 9 -7 17 -7 26 2
10 9 11 9 6 0 -9 -16 -1 -16 26 -2 16 9 19 8 13 -2 -6 -9 -3 -10 11 -5 27 11
74 14 68 4 -6 -10 4 -9 31 1 11 5 28 4 38 -1 11 -6 17 -5 17 3 0 7 4 8 13 2 6
-5 23 -8 37 -6 46 6 85 5 103 -2 11 -4 17 -3 17 5 0 10 4 9 16 -1 13 -10 17
-10 24 0 5 10 9 10 15 2 5 -9 10 -9 21 0 11 9 14 9 14 0 0 -9 5 -9 20 -1 14 8
20 8 20 0 0 -8 6 -8 20 0 15 8 20 8 20 -1 0 -8 4 -8 15 1 11 9 15 9 15 1 0 -8
5 -9 19 -1 14 7 22 7 26 0 5 -8 11 -7 21 1 10 8 14 8 14 1 0 -7 7 -9 17 -5 12
5 14 3 9 -8 -4 -8 -1 -6 7 4 10 12 17 15 22 7 5 -8 11 -7 23 2 13 11 15 10 9
-5 -6 -16 -5 -17 14 -3 15 10 28 12 45 6 16 -6 24 -6 24 1 0 6 6 7 17 0 10 -5
26 -5 40 0 13 5 23 5 23 0 0 -4 7 -8 15 -8 8 0 15 5 15 10 0 5 5 5 13 -1 8 -7
18 -7 27 -2 8 5 21 5 32 -1 13 -7 18 -6 18 2 0 8 4 9 13 0 10 -8 17 -7 25 1 9
9 12 9 12 0 0 -9 5 -10 17 -3 10 5 26 5 40 0 13 -5 23 -5 23 0 0 5 16 5 35 1
21 -5 38 -4 41 2 4 5 11 5 18 -1 9 -7 17 -7 26 2 10 9 11 9 6 0 -9 -16 -1 -16
26 -2 16 9 19 8 13 -2 -6 -9 -3 -10 11 -5 27 11 74 14 68 4 -6 -10 4 -9 31 1
11 5 28 4 38 -1 11 -6 17 -5 17 3 0 7 4 8 13 2 6 -5 23 -8 37 -6 46 6 85 5
103 -2 11 -4 17 -3 17 5 0 10 4 9 16 -1 13 -10 17 -10 24 0 5 10 9 10 15 2 5
-9 10 -9 21 0 11 9 14 9 14 0 0 -9 5 -9 20 -1 14 8 20 8 20 0 0 -8 6 -8 20 0
15 8 20 8 20 -1 0 -8 4 -8 15 1 11 9 15 9 15 1 0 -8 5 -9 19 -1 14 7 22 7 26
0 5 -8 11 -7 21 1 10 8 14 8 14 1 0 -7 7 -9 17 -5 12 5 14 3 9 -8 -4 -8 -1 -6
7 4 10 12 17 15 22 7 5 -8 11 -7 23 2 13 11 15 10 9 -5 -6 -16 -5 -17 14 -3
15 10 28 12 45 6 16 -6 24 -6 24 1 0 6 6 7 17 1 9 -5 29 -6 44 -2 19 6 29 4
32 -3 3 -9 8 -8 20 2 11 8 17 9 17 2 0 -7 8 -8 23 -2 13 5 30 5 37 1 9 -5 20
-4 27 2 9 7 13 7 13 -1 0 -8 6 -9 18 -2 11 6 24 6 35 0 12 -7 17 -6 17 2 0 9
3 9 14 0 10 -8 16 -9 21 -1 4 7 12 7 26 0 13 -8 25 -7 40 1 15 8 19 8 15 0 -4
-6 -4 -11 -1 -11 4 0 16 5 27 11 15 8 19 8 14 0 -9 -13 4 -14 23 -2 9 6 22 6
33 0 10 -5 18 -6 18 -2 0 4 11 8 24 8 13 0 22 -3 19 -7 -5 -10 6 -9 32 1 11 5
28 4 38 -1 11 -6 17 -5 17 3 0 8 4 8 13 1 8 -7 18 -7 27 -2 9 5 19 5 27 -2 7
-6 13 -6 13 -1 0 5 12 8 28 8 15 -1 33 3 40 8 6 5 12 7 12 3 0 -4 13 0 30 9
16 8 33 15 37 15 18 0 43 12 43 21 0 5 5 9 11 9 6 0 23 9 39 20 15 11 29 18
31 17 2 -1 3 0 2 1 -1 2 20 26 45 54 26 27 46 54 44 59 -1 5 2 9 6 9 19 0 71
159 67 208 -1 12 1 22 5 22 9 0 6 32 -4 48 -4 7 -2 12 4 12 7 0 8 6 0 19 -7
14 -7 22 0 26 8 5 7 11 -1 21 -6 8 -7 14 -2 14 12 0 11 30 -2 49 -6 11 -4 13
10 7 15 -5 16 -4 5 8 -14 18 -20 76 -8 76 5 0 5 8 0 18 -5 9 -6 26 -2 37 4 11
3 26 -2 32 -7 9 -7 13 1 13 9 0 9 5 0 21 -8 15 -8 19 0 15 13 -9 14 4 1 24 -5
8 -5 19 -1 25 10 12 8 45 -3 63 -4 7 -2 12 4 12 8 0 7 6 -1 21 -6 12 -7 19 -1
15 6 -3 9 5 8 19 0 14 -4 25 -8 25 -4 0 -3 13 2 29 4 15 4 34 0 42 -5 7 -4 21
1 31 7 13 6 18 -3 18 -8 0 -9 3 -3 8 13 9 15 42 3 42 -7 0 -6 5 1 13 8 10 7
17 -2 27 -10 10 -8 12 7 6 16 -5 17 -4 6 8 -14 18 -20 76 -8 76 5 0 5 8 0 17
-5 10 -6 27 -2 38 4 11 3 26 -2 33 -7 8 -7 12 1 12 9 0 9 5 0 21 -8 15 -8 19
0 15 13 -9 14 4 1 24 -5 8 -5 19 -1 25 10 12 8 45 -3 63 -4 7 -2 12 4 12 8 0
7 6 -1 21 -6 12 -7 19 -1 15 6 -3 9 5 8 19 0 14 -4 25 -8 25 -4 0 -3 11 2 25
6 16 6 26 -1 31 -8 4 -7 9 2 14 10 7 10 11 0 24 -9 10 -10 16 -3 16 7 0 9 7 5
17 -5 12 -3 14 8 9 8 -4 6 -1 -4 7 -12 10 -15 17 -7 22 7 5 8 11 1 19 -6 7 -6
17 -1 26 5 9 5 19 -2 27 -6 7 -6 13 -1 13 5 0 9 9 9 20 0 11 -4 20 -9 20 -5 0
-4 7 4 16 7 9 9 18 3 22 -11 8 -12 38 -1 48 4 4 2 13 -4 20 -7 8 -7 14 1 19 8
5 8 10 0 20 -8 10 -8 15 0 20 8 5 8 11 -1 21 -6 8 -7 14 -2 14 11 0 11 29 0
47 -4 6 -2 13 4 15 8 3 9 10 2 23 -12 24 -6 47 10 39 7 -3 4 1 -5 9 -12 9 -14
17 -7 24 8 8 7 13 0 17 -8 5 -8 13 -1 27 8 14 7 19 -1 19 -8 0 -9 4 0 13 8 10
7 17 -1 25 -7 7 -8 12 -3 12 6 0 11 11 11 25 1 14 -1 23 -5 21 -9 -6 -5 43 5
68 6 15 4 17 -7 11 -12 -7 -12 -6 -1 7 9 12 10 18 2 23 -8 5 -8 11 -1 19 7 9
7 16 -1 24 -7 7 -8 12 -2 12 12 0 12 29 1 47 -4 6 -1 13 5 16 10 3 10 7 -1 20
-8 11 -9 17 -3 17 7 0 9 7 5 17 -5 12 -3 14 8 9 8 -4 6 -1 -4 7 -12 10 -15 17
-7 22 7 5 8 11 1 19 -6 7 -6 17 -1 26 5 9 5 19 -2 27 -6 7 -6 13 -1 13 5 0 9
9 9 20 0 11 -4 20 -9 20 -5 0 -4 7 4 16 9 11 10 17 1 23 -7 4 -8 12 -2 21 5 8
4 22 -2 33 -8 15 -7 18 3 12 9 -6 10 -3 5 11 -12 28 -13 74 -4 80 5 3 5 11 -1
18 -6 7 -6 17 -1 26 5 9 5 19 -2 27 -6 7 -6 13 -1 13 5 0 9 9 9 20 0 11 -4 20
-9 20 -5 0 -4 7 4 16 7 9 9 18 3 22 -11 8 -12 38 -1 48 4 4 2 13 -4 20 -7 8
-7 14 1 19 8 5 8 10 0 20 -8 10 -8 15 0 20 8 5 8 11 -1 21 -6 8 -7 14 -2 14
11 0 11 29 0 47 -4 6 -2 13 4 15 8 3 9 10 2 23 -12 24 -6 47 10 39 7 -3 4 1
-5 9 -12 9 -14 17 -7 24 8 8 7 13 0 17 -8 5 -8 13 -1 27 8 14 7 19 -1 19 -8 0
-9 4 0 13 8 10 7 17 -1 25 -7 7 -8 12 -2 12 5 0 10 11 10 25 1 14 -1 23 -5 21
-9 -6 -5 43 5 68 6 15 4 17 -7 11 -12 -7 -12 -6 -1 7 9 12 10 18 2 23 -8 5 -8
11 -1 19 7 9 7 16 -1 24 -7 7 -8 12 -2 12 12 0 12 29 1 47 -4 6 -1 13 5 16 10
3 10 7 -1 20 -8 11 -9 17 -3 17 7 0 9 7 5 17 -5 12 -3 14 8 9 8 -4 6 -1 -4 7
-12 10 -15 17 -7 22 7 5 8 11 1 19 -6 7 -6 17 -1 26 5 9 5 19 -2 27 -6 7 -6
13 -1 13 5 0 9 9 9 20 0 11 -4 20 -9 20 -5 0 -3 7 4 17 11 13 11 17 2 20 -9 3
-10 10 -3 23 7 13 7 21 -1 26 -8 4 -7 9 2 14 10 7 10 11 0 24 -9 10 -10 16 -3
16 7 0 9 7 5 17 -5 12 -3 14 8 9 8 -4 6 -1 -4 7 -12 10 -15 17 -7 22 7 5 8 11
1 19 -6 7 -6 17 -1 26 5 9 5 19 -2 27 -6 7 -6 13 -1 13 5 0 9 9 9 20 0 11 -4
20 -9 20 -5 0 -4 7 4 16 7 9 9 18 3 22 -11 8 -12 38 -1 48 4 4 2 13 -4 20 -7
8 -7 14 1 19 8 5 8 10 0 20 -8 10 -8 15 0 20 8 5 8 11 -1 21 -6 8 -7 14 -2 14
11 0 11 29 0 47 -4 6 -2 13 4 15 8 3 9 10 2 23 -12 24 -6 47 10 39 7 -3 4 1
-5 9 -12 9 -14 17 -7 24 8 8 7 13 0 17 -8 5 -8 13 -1 27 8 14 7 19 -1 19 -8 0
-9 4 0 13 8 10 7 17 -1 25 -7 7 -8 12 -2 12 5 0 10 11 10 25 1 14 -1 23 -5 21
-9 -6 -5 43 5 68 6 15 4 17 -7 11 -12 -7 -12 -6 -1 7 9 12 10 18 2 23 -8 5 -8
11 -1 19 7 9 7 16 -1 24 -7 7 -8 12 -2 12 12 0 12 29 1 47 -4 6 -1 13 5 16 10
3 10 7 -1 20 -8 11 -9 17 -3 17 7 0 9 7 5 17 -5 12 -3 14 8 9 8 -4 6 -1 -4 7
-12 10 -15 17 -7 22 7 5 8 11 1 19 -6 7 -6 17 -1 26 5 9 5 19 -2 27 -6 7 -6
13 -1 13 5 0 9 9 9 20 0 11 -4 20 -9 20 -5 0 -4 7 4 16 9 11 10 17 1 23 -7 4
-8 12 -2 21 5 8 4 22 -2 33 -8 15 -7 18 3 12 9 -6 10 -3 5 11 -12 28 -13 74
-4 80 5 3 5 11 -1 18 -6 7 -6 17 -1 26 5 9 5 19 -2 27 -6 7 -6 13 -1 13 5 0 9
9 9 20 0 11 -4 20 -9 20 -5 0 -4 7 4 16 7 9 9 18 3 22 -11 8 -12 38 -1 48 4 4
2 13 -4 20 -7 8 -7 14 1 19 8 5 8 10 0 20 -8 10 -8 15 0 20 8 5 8 11 -1 21 -6
8 -7 14 -2 14 11 0 11 29 0 47 -4 6 -2 13 4 15 8 3 9 10 2 23 -12 24 -6 47 10
39 7 -3 4 1 -5 9 -12 9 -14 17 -7 24 8 8 7 13 0 17 -8 5 -8 13 -1 27 8 14 7
19 -1 19 -8 0 -9 4 0 13 8 10 7 17 -1 25 -7 7 -8 12 -2 12 5 0 10 11 10 25 1
14 -1 23 -5 21 -9 -6 -5 43 5 68 6 15 4 17 -7 11 -12 -7 -12 -6 -1 7 9 12 10
18 2 23 -8 5 -8 11 -1 19 7 9 7 16 -1 24 -7 7 -8 12 -2 12 12 0 12 29 1 47 -4
6 -1 13 5 16 10 3 10 7 -1 20 -8 11 -9 17 -3 17 7 0 9 7 5 17 -5 12 -3 14 8 9
8 -4 6 -1 -4 7 -12 10 -15 17 -7 22 7 5 8 11 1 19 -6 7 -6 17 -1 26 5 9 5 19
-2 27 -6 7 -6 13 -1 13 5 0 9 9 9 20 0 11 -4 20 -9 20 -5 0 -3 7 4 17 11 13
11 17 2 20 -9 3 -10 10 -3 23 7 13 7 21 -1 26 -8 4 -7 9 2 14 10 7 10 11 0 24
-9 10 -10 16 -3 16 7 0 9 7 5 17 -5 12 -3 14 8 9 8 -4 6 -1 -4 7 -12 10 -15
17 -7 22 7 5 8 11 1 19 -6 7 -6 17 -1 26 5 9 5 19 -2 27 -6 7 -6 13 -1 13 5 0
9 9 9 20 0 11 -4 20 -9 20 -5 0 -4 7 4 16 7 9 9 18 3 22 -11 8 -12 38 -1 48 4
4 2 13 -4 20 -7 8 -7 14 1 19 8 5 8 10 0 20 -8 10 -8 15 0 20 8 5 8 11 -1 21
-6 8 -7 14 -2 14 11 0 11 29 0 47 -4 6 -2 13 4 15 8 3 9 10 2 23 -12 24 -6 47
10 39 7 -3 4 1 -5 9 -12 9 -14 17 -7 24 8 8 7 13 0 17 -8 5 -8 13 -1 27 8 14
7 19 -1 19 -8 0 -9 4 0 13 8 10 7 17 -1 25 -7 7 -8 12 -3 12 6 0 11 11 11 25
1 14 -1 23 -5 21 -9 -6 -5 43 5 68 6 15 4 17 -7 11 -12 -7 -12 -6 -1 7 9 12
10 18 2 23 -8 5 -8 11 -1 19 7 9 7 16 -1 24 -7 7 -8 12 -2 12 12 0 12 29 1 47
-4 6 -1 13 5 16 10 3 10 7 -1 20 -8 11 -9 17 -3 17 7 0 9 7 5 17 -5 12 -3 14
8 9 8 -4 6 -1 -4 7 -12 10 -15 17 -7 22 7 5 8 11 1 19 -6 7 -6 17 -1 26 5 9 5
19 -2 27 -6 7 -6 13 -1 13 5 0 9 9 9 20 0 11 -4 20 -9 20 -5 0 -4 7 4 16 9 11
10 17 1 23 -7 4 -8 12 -2 21 5 8 4 22 -2 33 -8 15 -7 18 3 12 9 -6 10 -3 5 11
-12 28 -13 74 -4 80 5 3 5 11 -1 18 -6 7 -6 17 -1 26 5 9 5 19 -2 27 -6 7 -6
13 -1 13 5 0 9 9 9 20 0 11 -4 20 -9 20 -5 0 -4 7 4 16 7 9 9 18 3 22 -11 8
-12 38 -1 48 4 4 2 13 -4 20 -7 8 -7 14 1 19 8 5 8 10 0 20 -8 10 -8 15 0 20
8 5 8 11 -1 21 -6 8 -7 14 -2 14 11 0 11 29 0 47 -4 6 -2 13 4 15 8 3 9 10 2
23 -12 24 -6 47 10 39 7 -3 4 1 -5 9 -12 9 -14 17 -7 24 8 8 7 13 0 17 -8 5
-8 13 -1 27 8 14 7 19 -1 19 -8 0 -9 4 0 13 8 10 7 17 -1 25 -7 7 -8 12 -3 12
6 0 11 11 11 25 1 14 -1 23 -5 21 -9 -6 -5 43 5 68 6 15 4 17 -7 11 -12 -7
-12 -6 -1 7 9 12 10 18 2 23 -8 5 -8 11 -1 19 7 9 7 16 -1 24 -9 9 -9 12 1 12
7 0 10 4 7 8 -3 5 -8 40 -11 78 -4 38 -10 73 -15 78 -5 5 -6 15 -3 22 3 8 0
14 -7 14 -6 0 -8 5 -5 10 3 6 1 10 -6 10 -7 0 -9 3 -6 6 13 13 -36 84 -103
153 -35 36 -168 111 -196 111 -8 0 -13 3 -11 8 3 4 -17 7 -44 7 -27 0 -49 3
-49 6 0 4 -16 3 -35 -1 -19 -4 -35 -5 -35 -1 0 3 -11 7 -25 7 -14 1 -22 -2
-19 -8 4 -6 -2 -5 -14 1 -14 8 -23 8 -27 1 -5 -8 -11 -7 -21 1 -11 9 -14 9
-14 0 0 -8 -5 -9 -18 -2 -13 7 -23 6 -30 -1 -9 -9 -12 -9 -12 0 0 8 -7 9 -24
2 -17 -6 -30 -4 -46 7 -16 11 -21 12 -15 3 6 -10 3 -12 -13 -8 -12 4 -25 2
-28 -3 -4 -6 -11 -6 -19 1 -10 8 -15 8 -20 0 -5 -8 -10 -8 -20 0 -10 8 -15 8
-20 0 -5 -8 -11 -8 -19 -1 -7 6 -16 8 -20 4 -10 -10 -36 -12 -36 -3 0 10 -20
8 -37 -3 -7 -5 -13 -4 -13 1 0 10 -30 9 -48 -2 -6 -4 -12 -3 -12 2 0 10 -30 9
-48 -2 -7 -4 -12 -2 -12 4 0 8 -6 8 -20 0 -11 -6 -20 -7 -20 -2 0 4 -9 8 -20
8 -11 0 -20 -4 -20 -8 0 -4 -12 -3 -26 2 -17 7 -32 6 -46 -1 -15 -8 -19 -8
-14 0 4 6 4 11 1 11 -4 0 -16 -5 -27 -11 -15 -8 -19 -8 -14 0 9 13 -4 14 -23
2 -8 -5 -24 -6 -37 -1 -15 6 -26 5 -30 -1 -4 -7 -10 -7 -18 0 -7 6 -18 6 -26
1 -7 -4 -24 -4 -36 0 -14 6 -26 5 -29 0 -3 -5 -18 -5 -35 0 -17 5 -30 6 -30 2
0 -9 -75 -6 -89 3 -6 3 -11 1 -11 -5 0 -8 -30 1 -46 14 0 1 -8 -5 -17 -12 -11
-9 -17 -10 -22 -2 -5 8 -10 8 -20 0 -10 -8 -15 -8 -20 0 -5 8 -10 8 -20 0 -9
-8 -15 -8 -20 0 -3 6 -12 7 -18 3 -18 -11 -37 -12 -37 -3 0 10 -20 8 -37 -3
-7 -5 -13 -4 -13 1 0 10 -30 9 -48 -2 -6 -4 -12 -3 -12 2 0 10 -30 9 -48 -2
-7 -4 -12 -2 -12 4 0 8 -6 8 -20 0 -11 -6 -20 -7 -20 -2 0 4 -9 8 -20 8 -11 0
-20 -4 -20 -8 0 -4 -12 -3 -26 2 -17 7 -32 6 -46 -1 -15 -8 -19 -8 -14 0 4 6
4 11 1 11 -4 0 -16 -5 -27 -11 -15 -8 -19 -8 -14 0 9 13 -4 14 -23 2 -8 -5
-24 -6 -37 -1 -15 6 -26 5 -30 -1 -4 -7 -10 -7 -18 0 -7 6 -18 6 -26 1 -7 -4
-24 -4 -36 0 -14 6 -26 5 -29 0 -3 -5 -18 -5 -35 0 -17 5 -30 6 -30 2 0 -9
-75 -6 -89 3 -6 3 -11 1 -11 -5 0 -7 -6 -8 -17 -2 -21 10 -33 10 -50 -1 -6 -4
-15 -3 -18 3 -5 8 -11 8 -20 0 -10 -8 -15 -8 -20 0 -5 8 -10 8 -20 0 -9 -8
-15 -8 -20 0 -3 6 -12 7 -18 3 -18 -11 -37 -12 -37 -3 0 10 -20 8 -37 -3 -7
-5 -13 -4 -13 1 0 10 -30 9 -48 -2 -6 -4 -12 -3 -12 2 0 10 -30 9 -48 -2 -7
-4 -12 -2 -12 4 0 8 -6 8 -20 0 -11 -6 -20 -7 -20 -2 0 4 -9 8 -20 8 -11 0
-20 -4 -20 -8 0 -4 -12 -3 -26 2 -17 7 -32 6 -46 -1 -15 -8 -19 -8 -14 0 4 6
4 11 1 11 -4 0 -16 -5 -27 -11 -15 -8 -19 -8 -14 0 9 13 -4 14 -23 2 -8 -5
-24 -6 -37 -1 -15 6 -26 5 -30 -1 -4 -7 -10 -7 -18 0 -7 6 -18 6 -26 1 -7 -4
-24 -4 -36 0 -14 6 -26 5 -29 0 -3 -5 -18 -5 -35 0 -17 5 -30 6 -30 2 0 -9
-75 -6 -89 3 -6 3 -11 1 -11 -5 0 -7 -6 -8 -17 -2 -9 5 -28 6 -42 2 -14 -4
-35 -4 -46 0 -11 4 -26 3 -32 -2 -9 -7 -13 -7 -13 1 0 9 -5 9 -20 1 -11 -6
-20 -7 -20 -2 0 10 -30 9 -48 -2 -6 -4 -12 -3 -12 3 0 6 -11 6 -29 1 -15 -4
-34 -4 -40 0 -7 4 -29 4 -50 0 -20 -4 -46 -3 -57 0 -10 4 -25 3 -31 -2 -9 -7
-13 -7 -13 1 0 9 -5 9 -20 1 -11 -6 -20 -7 -20 -2 0 10 -36 9 -46 -1 -4 -4
-13 1 -21 11 -8 9 -11 11 -7 3 5 -11 2 -13 -14 -9 -12 4 -22 2 -22 -3 0 -6 -6
-6 -16 -1 -9 5 -33 6 -53 2 -20 -4 -46 -3 -57 0 -10 4 -25 3 -31 -2 -9 -7 -13
-7 -13 1 0 9 -5 9 -20 1 -11 -6 -20 -7 -20 -2 0 10 -30 9 -48 -2 -6 -4 -12 -3
-12 3 0 6 -11 6 -29 1 -15 -4 -34 -4 -40 0 -7 4 -29 4 -50 0 -20 -4 -46 -3
-57 0 -10 4 -25 3 -31 -2 -9 -7 -13 -7 -13 1 0 9 -5 9 -20 1 -11 -6 -20 -7
-20 -2 0 10 -36 9 -46 -1 -4 -4 -13 1 -21 11 -8 9 -11 11 -7 3 5 -11 2 -13
-14 -9 -12 4 -22 2 -22 -3 0 -6 -6 -6 -16 -1 -9 5 -33 6 -53 2 -20 -4 -46 -3
-57 0 -10 4 -25 3 -31 -2 -9 -7 -13 -7 -13 1 0 9 -5 9 -20 1 -11 -6 -20 -7
-20 -2 0 10 -30 9 -48 -2 -6 -4 -12 -3 -12 3 0 6 -11 6 -29 1 -15 -4 -34 -4
-40 0 -7 4 -29 4 -50 0 -20 -4 -46 -3 -57 0 -10 4 -25 3 -31 -2 -9 -7 -13 -7
-13 1 0 9 -5 9 -20 1 -11 -6 -20 -7 -20 -2 0 10 -36 9 -46 -1 -4 -4 -13 1 -21
11 -8 9 -11 11 -7 3 5 -11 2 -13 -14 -9 -12 4 -22 2 -22 -3 0 -6 -6 -6 -16 -1
-9 5 -33 6 -53 2 -20 -4 -46 -3 -57 0 -10 4 -25 3 -31 -2 -9 -7 -13 -7 -13 1
0 9 -5 9 -20 1 -11 -6 -20 -7 -20 -2 0 10 -30 9 -48 -2 -6 -4 -12 -3 -12 3 0
6 -11 6 -29 1 -15 -4 -34 -4 -40 0 -7 4 -29 4 -50 0 -20 -4 -46 -3 -57 0 -10
4 -25 3 -31 -2 -9 -7 -13 -7 -13 1 0 9 -5 9 -20 1 -11 -6 -20 -7 -20 -2 0 10
-36 9 -46 -1 -4 -4 -13 1 -21 11 -8 9 -11 11 -7 3z"/>
</g>
</svg>
